<?xml version="1.0" encoding="UTF-8"?>
<svg xmlns="http://www.w3.org/2000/svg" version="1.1" viewBox="0 0 200 100">
  <!-- Generator: Adobe Illustrator 28.7.3, SVG Export Plug-In . SVG Version: 1.2.0 Build 164)  -->
  <g>
    <g id="Layer_1">
      <g id="Layer_1-2" data-name="Layer_1">
        <rect y="30.9" width="39.8" height="38.2" rx="1.8" ry="1.8" fill="#fd6704"/>
        <path d="M31.2,37.8c-.3-.2-.8-.2-1.1,0l-10.3,7-10.2-6.9c-.3-.2-.8-.2-1.1,0s-.5.7-.5,1.1v22c0,.5.2.9.5,1.1.2.1.4.2.5.2s.4,0,.5-.2l10.3-7,10.2,6.9c.2.1.4.2.5.2s.4,0,.5-.2c.3-.2.5-.7.5-1.1v-22c0-.5-.2-.9-.5-1.1h0ZM10.2,58.8v-17.6l7.4,5-3.8,2.6c-.3.2-.5.7-.5,1.1s.2.9.5,1.1l3.9,2.7s-7.6,5.1-7.6,5.1ZM19.8,47.8l3.4,2.3-3.3,2.2-3.4-2.3,3.3-2.2ZM29.6,58.8l-7.4-5,3.8-2.6c.3-.2.5-.7.5-1.1s-.2-.9-.5-1.1l-3.9-2.7,7.6-5.1s0,17.6,0,17.6Z" fill="#fff"/>
        <path d="M130.3,65h-3.1v-1.3c0-4,0-7.9,0-11.9,0-3-1.6-4.8-4.3-4.9-2.6,0-4.6,1.8-4.7,4.6-.1,4,0,8,0,12v1.4h-3c0-.4,0-.9,0-1.4,0-4,0-8,0-12,0-2.5-1.1-4-3.1-4.5-2.7-.7-5.4,1-5.8,3.8,0,.7-.1,1.3-.1,2,0,3.6,0,7.2,0,10.7v1.3h-3.1v-19.9h3c0,.5,0,1,.2,1.8,1.7-1.6,3.5-2.6,5.8-2.3,2.3.2,4,1.3,5.2,3.3.3-.3.5-.6.7-.9,1.8-2.2,5.1-3.1,7.9-2.1,2.8.9,4.4,3,4.5,6.1,0,4.6,0,9.2,0,14h0Z" fill="#fff"/>
        <path d="M147.9,65h-3v-19.9h3v2.3c1.1-.8,2-1.6,3.1-2.2,4.6-2.3,10.2.5,10.6,5.6.4,4.5.1,9.1.2,13.6,0,.2,0,.3-.1.6-.8,0-1.6,0-2.4,0-.2,0-.6-.6-.6-1,0-3.5,0-7.1,0-10.6s0-1,0-1.5c-.1-2.5-1.4-4.2-3.5-4.8-2.1-.6-4.5.2-5.9,2.1-.9,1.3-1.4,2.8-1.4,4.4v11.5h0Z" fill="#fff"/>
        <path d="M80.3,45h3v12.2c0,3.4,1.7,5.6,4.5,5.8,3.2.2,5.8-1.9,6.2-5.2.2-2.1.1-4.3.2-6.4,0-2.1,0-4.2,0-6.4h3v19.9h-2.9c0-.7,0-1.5-.2-2.4-.3.3-.6.5-.8.7-2.6,2.5-5.9,3-9.2,1.5-2.3-1.1-3.7-3-3.8-5.5-.2-4.7,0-9.4,0-14.2h0Z" fill="#fff"/>
        <path d="M186.2,62.7c.5-.6,1-1.3,1.5-1.9.7.5,1.2.9,1.9,1.3,1.5.9,3.2,1.3,4.9.9,1.2-.3,2.1-.9,2.4-2.2.3-1.3-.2-2.2-1.1-3-.8-.6-1.6-1-2.5-1.5-1.1-.6-2.2-1-3.2-1.7-2.4-1.5-3.4-3.6-2.9-6,.4-2.3,2.1-3.7,4.9-4.2,2.6-.4,4.9.3,7.1,1.8-.5.7-.9,1.3-1.2,1.8-1.6-.4-3.1-.9-4.7-1.1-1.5-.2-2.7.7-3.1,1.8-.4,1.3,0,2.6,1.5,3.5,1.2.7,2.5,1.3,3.7,2,1.1.6,2.2,1.3,3.1,2.1,2.4,2.2,2.1,6-.5,8-3.1,2.3-9.1,1.6-11.7-1.5h0Z" fill="#fff"/>
        <path d="M62.8,36.9h2.9v28.1h-2.9v-28.1Z" fill="#fff"/>
        <path d="M74.6,65h-2.9v-28.1h2.9v28.1Z" fill="#fff"/>
        <path d="M139,65h-2.9v-19.9h2.9v19.9Z" fill="#fff"/>
        <path d="M139.3,36.9v3.7h-3.4v-3.7h3.4Z" fill="#fff"/>
        <path d="M182.4,54.2c0-1.5,0-3-.2-4.4-.2-1.7-1-3.1-2.4-4.1-2.9-2-8.7-1.7-11.4.7.4.6.8,1.3,1.1,1.9,1.3-.5,2.6-1,3.8-1.3,3.6-.9,6.1,1.1,6,4.9h0c-.3,0-.6,0-.9,0-2.7-.2-5.4-.2-8,.8-2.9,1-4.6,3.6-4.5,6.7.2,3,2,5.2,5,6,2.8.7,5.4.2,7.7-1.7.2-.2.5-.3.7-.5.6,2.2,1.1,2.4,3.1,1.9,0-3.6,0-7.2,0-10.8ZM179.3,58.3c-.5,3.7-5.1,5.9-8.3,4-2.7-1.6-2.5-5.7.3-7.1.9-.5,2.1-.7,3.1-.8,1.6-.1,3.2,0,5,0,0,1.5.1,2.8,0,4Z" fill="#fff"/>
        <path d="M58.5,39.5v-2.6h-10v2.6h3.5v23h-3.5v2.6h10v-2.6h-3.5v-23s3.5,0,3.5,0Z" fill="#fff"/>
      </g>
    </g>
  </g>
</svg>