<?xml version="1.0" encoding="UTF-8"?>
<svg xmlns="http://www.w3.org/2000/svg" version="1.1" viewBox="0 0 200 100">
  <!-- Generator: Adobe Illustrator 28.7.3, SVG Export Plug-In . SVG Version: 1.2.0 Build 164)  -->
  <g>
    <g id="Layer_1">
      <g>
        <path d="M107,45.5c-9.9,9.4-19.7,18.7-30.2,28.7,6.8,1.2,12.7.3,18.6.7,6.4-6,12.7-11.9,19.2-17.9-3.5-9.9-7-19.6-10.7-30.2,6.1-.4,11.4-.3,17.4,0,3.7,10.3,7.4,20.5,11.2,31.1-11.1,10.4-22,20.7-33.1,31.1-7.4,0-15,.6-22.4-.2-9.7-1-16.7-6.7-21.5-15.2-.9-1.5-1.6-3.2-3.2-4.8v18.4c-4.5,1.4-11,1.5-17.6.6-.1-1.7-.4-3.6-.4-5.5,0-8.6,0-17.2,0-25.8,0-1.4,0-2.9,0-4.3-.5-9-4.2-12.2-13.1-10.9-1.2.2-2.4.6-4,1v46.2H0V29.4c8.7-2.7,17.5-3.8,26.4-3.5,3.5.1,7.2.4,10.5,1.5,9.2,3,13.3,10.2,14.7,20.2,5.3-14.3,13.9-24.1,29.5-23.8,11.9.2,21.5,8.7,25.9,21.7ZM89.5,43c-5-5-9.8-6-14.3-3.2-6.6,4.1-10,15.1-6.7,22.9,7-6.6,13.8-13,20.9-19.7Z" fill="#fff"/>
        <path d="M180.7,27.7h16.7v14.6h-20.4c0,9-.4,17.2.1,25.4.3,5.4,3.2,7.3,8.7,7.2,3,0,6-.3,9.5-.5,1.5,3.9,3,7.9,4.5,11.8-.5.6-.8,1.2-1.2,1.4-8.2,3.1-16.7,3.7-25.2,1.3-7.2-2-12-6.8-13-14.2-1.2-8.8-1.3-17.8-1.9-26.4,7.8-7.3,14.9-14,22-20.6Z" fill="#fff"/>
        <path d="M176.5,9.6v17.5h-11.7c-6.8,6.3-13.2,12.2-20.3,18.7-1.7-4.5-3.1-8.4-4.5-12.1,2.4-2.7,4.4-5.1,6.5-7.4h12.7v-13.8c5.9-1,11.4-1.9,17.3-2.9Z" fill="#fff"/>
        <path d="M143.1,88.4h-17.1c-.7-2-1.5-4.1-2.4-6.5,4.1-4,8.1-7.7,12.8-12.3,2.4,6.6,4.4,12.4,6.7,18.8Z" fill="#fff"/>
      </g>
    </g>
  </g>
</svg>