<?xml version="1.0" encoding="UTF-8"?>
<svg xmlns="http://www.w3.org/2000/svg" version="1.1" viewBox="0 0 200 100">
  <!-- Generator: Adobe Illustrator 28.7.3, SVG Export Plug-In . SVG Version: 1.2.0 Build 164)  -->
  <g>
    <g id="Layer_1">
      <path d="M83.3,75.27c-.47-.7-.94-1.39-1.41-2.09-5.79-8.55-11.59-17.09-17.38-25.65-1.64-2.43-1.65-2.49.98-4,6.12-3.52,10.03-8.61,10.67-15.72.91-10.12-3.09-18.29-12.75-21.68-4.22-1.48-8.6-2.28-13.06-2.34-7.22-.1-14.44-.02-21.67-.03-2.94,0-2.89-.15-2.89,3.02.01,11.19,0,22.37,0,33.56,0,10.83,0,21.65,0,32.48,0,.84-.15,1.73.06,2.51.14.51.79,1.24,1.23,1.25,4.33.09,8.67.04,13,.07,1.08,0,1.5-.47,1.48-1.52-.03-2.29,0-4.57,0-6.86,0-5.53-.02-11.07,0-16.6.01-2.64.06-2.64,2.49-2.72,5.36-.18,5.34-.17,8.18,4.42,4.43,7.14,8.89,14.26,13.32,21.39.57.91.95,1.91,2.34,1.9,4.93-.05,9.87-.02,14.8-.03,1.16,0,1.08-.6.59-1.35ZM54.75,34.77c-3.9,1.58-7.99,1.38-12.07,1.28-1.35-.03-1.36-1.12-1.36-2.1-.01-2.52,0-5.04,0-7.56,0-2.64.03-5.28-.01-7.92-.02-1.11.19-1.91,1.54-1.82,3.58.25,7.21.19,10.71.82,4.35.77,6.62,3.57,6.95,7.57.38,4.62-1.67,8.07-5.77,9.73Z" fill="#0472a2"/>
      <path d="M121.34,46.65c0,9.15.01,18.29,0,27.44,0,2.5-.04,2.53-2.54,2.55-3.49.03-6.98.03-10.48,0-2.62-.02-2.65-.05-2.65-2.86-.01-16.49,0-32.97,0-49.46,0-1.44,0-2.89,0-4.33-.02-3.17-.03-3.19-3.08-3.2-4.82-.02-9.64-.07-14.45.03-1.73.04-2.33-.47-2.25-2.23.13-2.88.13-5.78,0-8.66-.09-1.82.64-2.21,2.31-2.19,6.62.08,13.25.03,19.87.03,9.87,0,19.75,0,29.62,0,3.65,0,3.66.01,3.67,3.8,0,2.17.02,4.33,0,6.5-.03,2.66-.05,2.68-2.85,2.7-4.82.02-9.63,0-14.45.01-2.65.01-2.69.04-2.69,2.8-.02,9.03,0,18.05,0,27.08Z" fill="#0673a3"/>
      <path d="M156.77,49.52c0-7.94-.01-15.87,0-23.81,0-2.48.04-2.51,2.56-2.53,3.49-.03,6.98-.04,10.47,0,2.3.02,2.36.07,2.36,2.39.02,13.11.01,26.21.01,39.32,0,3.25-.07,6.5.03,9.74.05,1.61-.58,2.05-2.09,2.02-3.73-.08-7.46-.12-11.19.02-1.8.06-2.21-.57-2.19-2.27.08-8.3.04-16.59.03-24.89Z" fill="#0270a0"/>
      <path d="M174.21,9.92c.46,4.67-3.82,9.9-9.76,9.76-5.54-.13-9.88-4.38-9.84-9.86.03-5.4,4.48-9.62,9.95-9.81,4.37-.15,10.12,3.94,9.66,9.91Z" fill="#04aa9e"/>
      <path d="M172.6,90.04c0,2.65-.09,5.3.03,7.94.08,1.89-1.08,1.78-2.33,1.8-1.22.02-2.2-.13-2-1.73.05-.35.03-.72,0-1.08-.13-1.64-.28-3.28-.42-4.91-2.15-.06-4.3-.2-6.44-.12-.36.01-.92.95-.97,1.5-.14,1.55-.12,3.13-.04,4.69.09,1.64-.91,1.69-2.08,1.65-1.06-.04-2.25.21-2.24-1.5.03-5.53.02-11.07,0-16.6,0-1.76,1.29-1.38,2.31-1.41.96-.03,2.01-.14,1.99,1.35-.02,1.68.03,3.37,0,5.05-.02,1.04.37,1.56,1.46,1.53,1.92-.05,3.85-.06,5.77-.09.22-1.83.52-3.65.64-5.49.15-2.35.19-2.38,2.45-2.39,1.39,0,1.93.47,1.89,1.88-.08,2.64-.02,5.29-.02,7.94Z" fill="#fff"/>
      <path d="M25.98,89.88c0-2.64.04-5.29-.02-7.93-.03-1.23.44-1.74,1.67-1.71,2.16.05,4.33-.04,6.49.05,2.34.09,4.38,1.19,5.16,3.32.82,2.24,1.02,4.85-1.29,6.56-1.64,1.22-1.19,2.32-.3,3.6,1.16,1.67,2.33,3.33,3.44,5.04.12.18-.09.86-.27.91-1.96.57-3.68-.07-4.86-1.81-.94-1.38-1.76-2.87-2.8-4.16-.46-.57-1.35-.78-2.05-1.15-.29.68-.73,1.33-.84,2.04-.15.94-.01,1.92-.04,2.88-.06,2.01-1.77,3.08-3.56,2.09-.44-.24-.68-1.17-.7-1.79-.07-2.64-.03-5.29-.03-7.93ZM30.28,86.28c.07,1.19-.5,2.73,1.71,2.66,2.28-.08,3.43-.9,3.38-2.67-.05-1.79-.88-2.3-3.14-2.44-2.02-.13-2.07,1.03-1.95,2.46Z" fill="#fff"/>
      <path d="M117.08,89.82c0-2.52.08-5.05-.03-7.57-.07-1.62.61-2.09,2.11-2.03,1.92.08,3.85,0,5.77.03,2.5.05,4.65,1.13,5.48,3.4.82,2.23.99,4.86-1.35,6.55-1.71,1.24-1.06,2.36-.22,3.6,1.07,1.59,2.14,3.17,3.26,4.72.57.79.63,1.11-.53,1.26-2.27.29-3.89-.36-4.96-2.5-.69-1.38-1.6-2.67-2.57-3.87-.38-.46-1.26-.82-1.82-.72-.37.07-.73,1.03-.8,1.62-.13,1.07-.13,2.17-.02,3.24.19,1.76-.53,2.24-2.24,2.26-1.93.03-2.15-.88-2.1-2.43.08-2.52.02-5.05.02-7.57ZM121.37,86.3c0,1.33-.35,2.77,1.8,2.64,2.11-.13,3.21-.84,3.29-2.41.1-1.95-.85-2.6-3.22-2.71-2.11-.1-1.89,1.22-1.86,2.47Z" fill="#fff"/>
      <path d="M110.92,99.76c-1.27.16-2.31-.23-2.53-1.75-.34-2.28-1.75-2.9-3.82-2.59-.35.05-.73.06-1.08,0-2.09-.33-3.38.37-3.89,2.56-.15.66-.9,1.54-1.51,1.67-.99.22-2.1-.1-3.16-.19.18-.9.24-1.85.55-2.71,1.74-4.83,3.67-9.6,5.25-14.48.58-1.81,1.5-2.07,3.11-2.08,1.67,0,3.01.07,3.64,2,1.68,5.1,3.5,10.16,5.23,15.25.77,2.28.66,2.37-1.77,2.31ZM103.77,91.81c2.51.05,2.78-.28,2.12-2.65-.38-1.38-.8-2.74-1.22-4.11-.09-.28-.29-.52-.43-.78-.25.24-.64.43-.74.72-.5,1.59-.96,3.19-1.38,4.81-.48,1.84-.35,1.97,1.66,2.02Z" fill="#fff"/>
      <path d="M45.51,90.14c0-2.64.04-5.29-.02-7.93-.03-1.31.3-2.02,1.78-1.98,2.64.07,5.29.09,7.93,0,1.5-.06,1.79.61,1.82,1.93.04,1.53-.73,1.8-2,1.74-1.2-.06-2.41.05-3.61-.02-1.65-.11-1.67.94-1.62,2.09.04,1.04-.28,2.29,1.46,2.24,1.08-.03,2.17.07,3.24-.01,1.42-.11,1.87.49,1.89,1.87.02,1.5-.69,1.86-1.98,1.77-.72-.05-1.44-.02-2.16,0-2.48.07-2.55.23-2.48,2.7.04,1.28.56,1.69,1.74,1.64,1.2-.05,2.41.05,3.61-.02,1.37-.09,1.92.4,1.92,1.83,0,1.44-.56,1.86-1.92,1.83-2.64-.07-5.29-.05-7.93-.01-1.22.02-1.71-.46-1.69-1.7.06-2.64.02-5.29.02-7.93Z" fill="#fff"/>
      <path d="M85.3,99.98c-1.86-.23-4.29.15-5.42-.88-.93-.85-.37-3.38-.39-5.16-.03-3.72-.03-7.45,0-11.17.02-2.46.06-2.48,2.64-2.51,2.28-.03,4.57.03,6.85-.02,1.25-.03,2,.17,2.03,1.72.04,1.71-.75,2.04-2.18,1.93-.84-.06-1.68-.03-2.52,0-2.56.06-2.63.19-2.56,2.6.03,1.17.35,1.81,1.64,1.73.96-.06,1.92.02,2.88-.01,1.19-.04,2.06.07,2.09,1.67.04,1.67-.69,2.1-2.15,1.97-.72-.06-1.44-.03-2.16,0-2.28.07-2.31.2-2.32,2.5,0,1.42.54,1.93,1.91,1.84,1.08-.07,2.17.06,3.24-.03,1.5-.12,2.14.36,2.12,1.99-.02,1.65-.94,1.67-2.09,1.65-1.2-.02-2.4,0-3.61,0,0,.07-.02.15-.02.22Z" fill="#fff"/>
      <path d="M67.43,100c-1.51-.29-2.82-.42-4.05-.83-.55-.18-1.18-.85-1.33-1.42-.63-2.39.12-2.97,2.64-2.28,1.14.31,2.38.75,3.47.56.88-.15,1.61-1.16,2.41-1.79-.5-.6-.89-1.37-1.52-1.77-1.32-.82-2.79-1.38-4.14-2.14-2.07-1.17-3.12-3-2.79-5.38.33-2.38,1.85-4.1,4.12-4.43,2.05-.29,4.23.14,6.33.41.93.12,2.01.54,1.56,1.87-.39,1.16-.98,2.22-2.58,1.7-.79-.26-1.59-.51-2.41-.62-1.12-.15-2.28,0-2.68,1.25-.42,1.29.45,1.93,1.52,2.45,1.4.67,2.79,1.38,4.09,2.23,3.46,2.27,3.33,7.06-.34,9.01-1.31.7-2.94.82-4.3,1.17Z" fill="#fff"/>
      <path d="M145.8,99.95c-7.6.08-10.2-5.95-9.07-11.77,1.39-7.12,5.78-8.63,11.91-7.8.46.06.87.39,1.32.53,1.49.48,1.13,1.62.94,2.67-.21,1.15-1.08,1.13-1.95.99-1.28-.2-2.6-.77-3.83-.62-2.81.35-4.68,3.8-4.22,7.33.41,3.19,2.88,5.2,5.96,4.82.58-.07,1.13-.44,1.71-.48.83-.06,2.05-.82,2.31.7.2,1.14.43,2.51-1.24,2.9-1.27.29-2.56.49-3.84.72Z" fill="#fff"/>
    </g>
  </g>
</svg>