<?xml version="1.0" encoding="UTF-8"?>
<svg xmlns="http://www.w3.org/2000/svg" version="1.1" viewBox="0 0 200 100">
  <!-- Generator: Adobe Illustrator 28.7.3, SVG Export Plug-In . SVG Version: 1.2.0 Build 164)  -->
  <g>
    <g id="Layer_1">
      <path d="M85.76,43.18h-.23c-.18,0-.33.1-.4.27l-4.3,11.93-4.3-11.93c-.06-.17-.22-.28-.4-.27h-.23c-.3,0-.47.27-.4.53l4.47,12.27c.17.47.43.7.83.7h.53l4.77-12.97c.13-.23-.07-.53-.33-.53h0ZM93.53,53.82c-.27.63-.63,1.13-1.13,1.53s-1,.57-1.57.57h-1.2c-.6,0-1.07-.17-1.4-.47-.35-.3-.54-.74-.53-1.2v-.73c0-.5.17-.9.53-1.2s.83-.47,1.43-.47h1.27c.5,0,.97.1,1.43.27.42.15.8.37,1.13.67v1.03h.03ZM91.5,46.92h-1.5c-.9,0-1.67.23-2.23.67-.57.47-.83,1.03-.83,1.8,0,.29.23.53.52.53,0,0,0,0,.01,0,.29,0,.53-.23.53-.52,0,0,0,0,0-.01,0-.47.2-.87.57-1.13.37-.27.87-.43,1.47-.43h1.5c.6,0,1.07.2,1.43.57.37.4.57.87.57,1.5v1.87c-.37-.25-.77-.45-1.2-.57-.44-.13-.9-.2-1.37-.2h-1.27c-.9,0-1.63.23-2.2.7-.57.47-.83,1.1-.83,1.87v.73c0,.8.27,1.4.8,1.87.53.47,1.27.7,2.17.7h1.17c.5,0,1-.13,1.5-.43.5-.3.9-.7,1.23-1.2v1.17c0,.27.23.5.5.5.27,0,.49-.23.5-.5v-6.47c0-.9-.27-1.63-.83-2.17-.53-.57-1.27-.83-2.2-.83h0ZM102.6,46.92h-1.3c-.5,0-1.03.17-1.5.47-.5.33-.9.77-1.23,1.3v-1.3c0-.27-.23-.49-.5-.5-.27,0-.49.23-.5.5v8.93c0,.29.23.53.52.53,0,0,0,0,.01,0,.29,0,.53-.23.53-.52,0,0,0,0,0-.01v-5.93c.18-.71.55-1.35,1.07-1.87.5-.47,1.07-.7,1.63-.7h1.2c.53,0,1,.2,1.33.63.33.43.5.97.5,1.63v6.23c0,.29.23.53.52.53,0,0,0,0,.01,0,.29,0,.53-.23.53-.52,0,0,0,0,0-.01v-6.2c0-.97-.27-1.73-.77-2.33-.57-.6-1.23-.87-2.07-.87h0ZM113.83,51.72l-3.37-.57c-.37-.07-.67-.2-.9-.4-.23-.23-.33-.5-.33-.77v-.63c0-.43.17-.8.53-1.1.33-.27.8-.4,1.37-.4h1.63c.53,0,.97.17,1.3.47.33.33.5.73.53,1.27,0,.27.23.5.5.5.27,0,.49-.23.5-.5,0-.8-.27-1.43-.77-1.93-.53-.5-1.2-.73-2.07-.73h-1.63c-.87,0-1.57.23-2.1.67-.53.43-.8,1.03-.8,1.73v.67c0,.5.2.97.57,1.33.37.37.9.63,1.5.73l3.37.57c.33.07.6.2.83.43.2.23.33.47.33.77v.77c0,.4-.2.73-.57,1s-.9.4-1.5.4h-1.67c-.6,0-1.1-.2-1.47-.57-.37-.37-.57-.87-.57-1.43,0-.27-.23-.49-.5-.5-.27,0-.49.23-.5.5,0,.87.27,1.57.83,2.1.57.53,1.3.8,2.2.8h1.67c.93,0,1.7-.2,2.27-.63.57-.43.83-.97.83-1.67v-.73c0-.47-.27-1.17-.6-1.5-.42-.33-.91-.55-1.43-.63h0ZM125.43,53.32c0,.8-.23,1.4-.7,1.9-.47.47-1.07.7-1.8.7h-1.53c-.73,0-1.3-.23-1.73-.7s-.67-1.1-.67-1.9v-2.87c0-.8.23-1.4.67-1.9.43-.47,1.03-.7,1.77-.7h1.53c.73,0,1.33.23,1.77.7.47.47.67,1.1.67,1.9v2.87h.03ZM123,46.92h-1.53c-1.03,0-1.87.33-2.53.97-.63.67-.97,1.5-.97,2.57v2.87c0,1.07.3,1.9.93,2.57.63.67,1.47.97,2.5.97h1.53c1.07,0,1.9-.33,2.53-.97s.97-1.5.97-2.57v-2.87c0-1.07-.33-1.9-.97-2.57-.6-.67-1.43-.97-2.47-.97ZM134.3,46.92h-1.3c-.5,0-1.03.17-1.5.47-.5.33-.9.77-1.23,1.3v-1.3c0-.27-.23-.49-.5-.5-.27,0-.49.23-.5.5v8.93c0,.29.23.53.52.53,0,0,0,0,.01,0,.29,0,.53-.23.53-.52,0,0,0,0,0-.01v-5.93c.18-.71.55-1.35,1.07-1.87.5-.47,1.07-.7,1.63-.7h1.2c.53,0,1,.2,1.33.63.33.43.5.97.5,1.63v6.23c0,.29.23.53.52.53,0,0,0,0,.01,0,.29,0,.53-.23.53-.52,0,0,0,0,0-.01v-6.2c0-.97-.27-1.73-.77-2.33-.57-.6-1.23-.87-2.07-.87h0Z" fill="#fff"/>
      <path d="M149.2,53.35c0,.73-.23,1.3-.73,1.73-.47.43-1.13.63-1.93.63h-5.23v-5.4h5.6c.67,0,1.23.17,1.67.53.43.37.63.83.63,1.43v1.07ZM141.3,44.15h4.57c.73,0,1.33.17,1.8.53s.7.83.7,1.4v1.1c0,.67-.2,1.23-.57,1.63-.4.41-.96.64-1.53.63h-4.93v-5.3h-.03ZM148.13,49.68c.4-.26.73-.63.93-1.07.23-.43.33-.93.33-1.47v-1.1c0-.87-.33-1.57-.97-2.1-.67-.53-1.5-.8-2.57-.8h-5.6v12.53c0,.3.1.53.27.7.17.17.43.27.7.27h5.43c1.1,0,1.97-.3,2.63-.93.67-.6,1-1.43,1-2.43v-1.03c0-.63-.2-1.2-.57-1.7-.43-.4-.97-.73-1.6-.87h0ZM159.83,53.32c0,.8-.23,1.4-.7,1.9-.47.47-1.07.7-1.8.7h-1.5c-.73,0-1.3-.23-1.73-.7-.43-.47-.67-1.1-.67-1.9v-2.87c0-.8.23-1.4.67-1.9.43-.47,1.03-.7,1.77-.7h1.53c.73,0,1.33.23,1.77.7.47.47.67,1.1.67,1.9v2.87ZM157.4,46.92h-1.53c-1.03,0-1.87.33-2.53.97-.63.67-.97,1.5-.97,2.57v2.87c0,1.07.3,1.9.93,2.57.63.67,1.47.97,2.5.97h1.53c1.07,0,1.9-.33,2.53-.97s.97-1.5.97-2.57v-2.87c0-1.07-.33-1.9-.97-2.57-.6-.67-1.43-.97-2.47-.97h0ZM192.8,50.48c0-.8.2-1.43.63-1.9.43-.5,1-.73,1.7-.73h1.57c.67,0,1.2.23,1.63.7.4.47.63,1.1.63,1.87v.73h-6.17v-.67h0ZM200,52.02v-1.63c0-1.07-.3-1.9-.9-2.53-.6-.63-1.4-.97-2.37-.97h-1.57c-1,0-1.83.33-2.47,1-.63.67-.93,1.53-.93,2.6v3c0,1.03.3,1.83.93,2.47.63.63,1.43.93,2.47.93h1.47c1,0,1.8-.3,2.43-.87.6-.57.9-1.33.9-2.27,0-.27-.23-.49-.5-.5-.27,0-.49.23-.5.5,0,.67-.2,1.2-.63,1.6-.43.4-1,.6-1.7.6h-1.47c-.7,0-1.27-.23-1.7-.67-.43-.47-.63-1.03-.63-1.77v-1.43h7.17s0-.07,0-.07ZM170.87,46.92c-.29,0-.53.23-.53.52,0,0,0,0,0,.01v5.93c-.18.71-.55,1.35-1.07,1.87-.5.47-1.07.7-1.63.7h-1.2c-.53,0-1-.2-1.33-.63-.33-.43-.5-.97-.5-1.63v-6.23c0-.29-.23-.53-.52-.53,0,0,0,0-.01,0-.29,0-.53.23-.53.52,0,0,0,0,0,.01v6.2c0,.97.27,1.73.77,2.33.53.6,1.2.87,2.03.87h1.3c.5,0,1.03-.17,1.5-.47.5-.33.9-.77,1.23-1.3v1.3c0,.27.23.5.5.5.27,0,.49-.23.5-.5v-8.93c.03-.3-.2-.53-.5-.53h0ZM179.17,47.02h-.57c-.57,0-1.47.2-1.93.5-.47.27-.83.67-1.1,1.1v-1.2c0-.27-.23-.49-.5-.5-.27,0-.49.23-.5.5v8.93c0,.29.23.53.52.53,0,0,0,0,.01,0,.29,0,.53-.23.53-.52,0,0,0,0,0-.01v-5.5c0-.87.27-1.57.8-2.1.53-.53,1.23-.8,2.07-.8h.73c.25,0,.46-.19.47-.44,0,0,0-.01,0-.02,0-.27-.3-.47-.53-.47ZM186.27,46.92h-1.3c-.5,0-1.03.17-1.5.47-.5.33-.9.77-1.23,1.3v-1.3c0-.27-.23-.49-.5-.5-.27,0-.49.23-.5.5v8.93c0,.29.23.53.52.53,0,0,0,0,.01,0,.29,0,.53-.23.53-.52,0,0,0,0,0-.01v-5.93c.18-.71.55-1.35,1.07-1.87.5-.47,1.07-.7,1.63-.7h1.2c.53,0,1,.2,1.33.63.33.43.5.97.5,1.63v6.23c0,.29.23.53.52.53,0,0,0,0,.01,0,.29,0,.53-.23.53-.52,0,0,0,0,0-.01v-6.2c0-.97-.27-1.73-.77-2.33-.53-.6-1.23-.87-2.07-.87h0Z" fill="#fff"/>
      <path d="M30.29,33.12c-.03.07-12.3,34.13-12.3,34.13,0,0-2.53,7.47-6.47,6.13-.13-.03-.3-.13-.4-.2-.29-.16-.57-.34-.83-.53-2.5-1.8-3.5-4.8-3.67-5.33,0-.03-6.4-25.03-6.4-25.03-1.17-4.67,2.33-9.17,7.13-9.17h22.93Z" fill="#d5d8cd"/>
      <path d="M66.13,33.35l-12.87,33.33c-1.57,4.07-6.13,7.33-10.2,7.33H14.49c-1.13,0-2.1-.23-2.97-.63,3.93,1.33,6.47-6.13,6.47-6.13l12.3-34.13c1.63-3.97,6.1-7.13,10.1-7.13h21.23c4.07.03,6.07,3.3,4.5,7.37Z" fill="#4ebfa2"/>
      <path d="M11.53,73.42c1.07.37,1.93.07,2.7-.47s1.4-1.3,1.9-2.1c1.03-1.6,1.7-3.43,2.37-5.23,1.33-3.6,2.63-7.23,3.93-10.83l3.93-10.83,1.97-5.4,2-5.4-1.83,5.47-1.87,5.43c-1.27,3.63-2.57,7.23-3.83,10.87-1.33,3.6-2.63,7.23-4,10.8-.7,1.8-1.37,3.6-2.47,5.23-.57.8-1.2,1.53-2,2.07-.87.53-1.9.87-2.8.4Z" fill="#fed55f"/>
    </g>
  </g>
</svg>