<?xml version="1.0" encoding="UTF-8"?>
<svg xmlns="http://www.w3.org/2000/svg" version="1.1" viewBox="0 0 200 100">
  <!-- Generator: Adobe Illustrator 28.7.3, SVG Export Plug-In . SVG Version: 1.2.0 Build 164)  -->
  <g>
    <g id="Layer_1">
      <path d="M59.28,61.89c-6.97-6.26-11.31-14.73-11.31-24.56,0-17.85,14.47-32.37,32.32-32.32,11.98.03,20.6,5.21,27.69,15.07.45.63.67,1.82-.1,2.68l-45.89,39.38c-.76.58-2.01.38-2.71-.26" fill="#263488"/>
      <path d="M111.59,23.95c-.41-.85-.25-2.1.51-3.01,0,0,17.38-14.99,18.97-16.38.77-.67,2.11-.38,2.78.19l19.07,15.71c1.34.96,1.68,1.63,1.77,2.92v35.98c0,1.63-.67,2.21-2.06,2.21h-44.27c-1.29,0-1.87-1.45-1.1-2.45,4.36-5.65,7.33-11.88,7.43-20.98.06-5.75-1-9.91-3.1-14.19" fill="#fc0e1a"/>
      <path d="M192.98,83.03h7.02v3.63h-7.02v4.43h7.02v3.62h-10.74v-19.22h10.74v3.67h-7.02v3.87Z" fill="#fff"/>
      <path d="M177.97,86.9c1.8.8,2.76,1.26,2.76,3.06s-1.18,2.27-2.76,2.26c-1.67-.01-3.92-.71-4.97-1.62v3.68c1.26.97,2.93,1.55,4.84,1.56,4.56.02,6.93-2.59,6.91-5.79-.02-3.72-2.34-5.62-6.08-6.98-1.38-.5-2.46-1.45-2.46-2.61s1.19-2.06,2.66-2.1c2.05-.05,3.31.27,4.61,1.09v-3.79c-1.23-.58-2.95-1.01-4.84-1-3.57.01-6.37,2.52-6.41,5.62-.05,3.51,2.3,5.1,5.73,6.64" fill="#fff"/>
      <path d="M120.47,83.27h5.73v-7.79h3.8v19.28h-3.8v-7.81h-5.73v7.81h-3.97v-19.28h3.97v7.79Z" fill="#fff"/>
      <path d="M65.78,86.82c1.8.79,2.76,1.26,2.76,3.05s-1.17,2.26-2.76,2.25c-1.67-.01-3.92-.71-4.97-1.61v3.68c1.26.97,2.93,1.55,4.84,1.56,4.56.02,6.93-2.59,6.92-5.79-.02-3.72-2.34-5.62-6.08-6.98-1.38-.5-2.45-1.45-2.45-2.61s1.19-2.06,2.66-2.1c2.04-.06,3.31.26,4.61,1.09v-3.79c-1.23-.59-2.95-1.01-4.84-1.01-3.57.02-6.38,2.52-6.41,5.62-.04,3.51,2.3,5.1,5.72,6.65" fill="#fff"/>
      <path d="M41.01,84.65l7.19,10.12h-4.81l-6.14-8.68v8.68h-3.97v-19.28h3.97v7.69l5.85-7.69h4.72l-6.81,9.16Z" fill="#fff"/>
      <path d="M20.48,83.09h7.02v3.62h-7.02v4.43h7.02v3.62h-10.74v-19.22h10.74v3.67h-7.02v3.87Z" fill="#fff"/>
      <path d="M5.73,86.7c1.8.8,2.76,1.26,2.76,3.05s-1.18,2.27-2.76,2.26c-1.67-.01-3.92-.71-4.97-1.61v3.68c1.26.97,2.93,1.55,4.84,1.56,4.56.02,6.93-2.6,6.92-5.8-.02-3.72-2.34-5.62-6.08-6.98-1.38-.5-2.45-1.45-2.45-2.61s1.19-2.06,2.66-2.1c2.05-.05,3.31.26,4.61,1.09v-3.8c-1.23-.58-2.95-1.01-4.84-1-3.58.02-6.38,2.52-6.42,5.62-.04,3.51,2.3,5.1,5.73,6.64" fill="#fff"/>
      <path d="M51.46,75.48h4.14v19.28h-4.14v-19.28Z" fill="#fff"/>
      <path d="M90.41,75.48h-4v13.91c.01,1.52-1.22,2.75-2.74,2.75s-2.75-1.23-2.75-2.75v-13.91s-4.13,0-4.13,0v13.48c0,4.21,3.08,6.79,6.82,6.79s6.81-2.37,6.79-6.79v-13.48h0Z" fill="#fff"/>
      <path d="M95.54,75.49h4.14v19.26h-4.14v-19.26Z" fill="#fff"/>
      <path d="M168.29,75.48h-4.01v13.9c.01,1.52-1.22,2.75-2.74,2.75s-2.74-1.23-2.74-2.75v-13.9h-4.13v13.47c0,4.21,3.08,6.79,6.82,6.79s6.8-2.37,6.79-6.79l.02-13.47Z" fill="#fff"/>
      <path d="M142.43,74.59c-5.48,0-8.17,4.66-8.17,10.41s3.07,10.41,8.17,10.41c5.4,0,8.17-4.66,8.17-10.41s-2.74-10.41-8.17-10.41ZM142.43,92.03c-2.69.04-4.38-3.15-4.38-7.04s1.56-7.04,4.38-7.04,4.39,3.15,4.39,7.04-1.69,6.99-4.39,7.04Z" fill="#fff"/>
    </g>
  </g>
</svg>