<?xml version="1.0" encoding="UTF-8"?>
<svg xmlns="http://www.w3.org/2000/svg" version="1.1" viewBox="0 0 200 100">
  <!-- Generator: Adobe Illustrator 28.7.3, SVG Export Plug-In . SVG Version: 1.2.0 Build 164)  -->
  <g>
    <g id="Layer_1">
      <g>
        <path d="M90.27,68.32c-1.92.08-3.39-.76-4.51-2.2-.64-.82-.87-1.86-.95-2.9-.11-1.48.28-2.91.66-4.31.09-.34.56-.6.91-.82.09-.06.45.09.53.24.39.7.61,1.43.4,2.27-.28,1.12-.53,2.25-.68,3.39-.09.75.24,1.39.8,1.96.95.96,2.1.84,3.18.59.67-.16,1.37-.65,1.8-1.2.33-.42.35-1.17.34-1.76-.02-.67-.2-1.32-.55-1.95-.5-.89-.81-1.88-1.2-2.83-.01-.03-.01-.07-.03-.1-.41-.78-.82-1.56-1.23-2.33-.02-.05-.07-.08-.08-.13-.34-.98-.74-1.95-1.01-2.96-.24-.91-.54-1.86-.48-2.77.11-1.63.63-3.1,2.11-4.15.77-.55,1.62-.78,2.44-1.14.17-.07.37-.09.56-.07,1.67.15,3.06.81,4.05,2.21.33.47.26,1.68-.09,2.12-.41.52-.83,1.04-1.24,1.56-.36.45-.57.49-1.05.18-.95-.6-1.06-1.52-.29-2.34.14-.15.29-.31.35-.49.28-.76,0-1.16-.8-1.2-1.51-.08-2.28.39-2.83,1.8-.08.21-.13.49-.07.7.22.77.47,1.53,1.07,2.14.42.43.75.97,1.09,1.48.73,1.07,1.45,2.16,2.17,3.24.02.03.04.06.05.09,1.12,2.13,1.34,4.4.75,6.69-.28,1.08-.78,2.15-1.59,2.96-.5.5-1.16.83-1.76,1.21-.35.22-.71.45-1.09.56-.56.15-1.14.19-1.72.27Z" fill="#fff"/>
        <path d="M68.46,80.83c-.96-.28-2.03-.29-2.93-.94-.62-.44-1.34-.74-1.97-1.18-.57-.39-1.09-.87-1.62-1.32-.98-.83-1.89-1.79-2.97-2.48-.85-.55-1.9-.79-2.97-.59-.56.1-1.12.19-1.67.34-.39.11-.75.31-1.13.47-.14.06-.27.16-.41.21-.94.35-1.9.67-2.83,1.06-.95.4-1.87.88-2.82,1.3-.37.17-.8.22-1.17.39-.92.4-1.83.84-2.74,1.25-.2.09-.43.13-.64.19-.15.04-.31.05-.45.12-.85.39-1.69.79-2.54,1.18-.23.11-.49.17-.72.27-.42.18-.84.37-1.26.55-.08.03-.14.1-.22.13-.87.34-1.75.65-2.62,1.02-1,.42-1.99.88-2.99,1.33-.09.04-.18.1-.28.14-.84.33-1.69.65-2.53.98-.22.09-.43.22-.64.32-.29.14-.57.29-.87.39-.4.13-.77.18-1.08.6-.15.21-.77.08-1.18.11.02-.12,0-.26.06-.36.36-.61.74-1.21,1.1-1.83.52-.89,1.03-1.79,1.52-2.7.36-.66.65-1.35,1.01-2.01.39-.71.82-1.41,1.25-2.1.35-.57.71-1.14,1.1-1.68.61-.84,1.25-1.66,1.89-2.49.06-.07.24-.14.3-.11.1.06.22.22.2.32-.08.5-.18,1-.31,1.49-.11.39-.27.78-.43,1.15-.11.26-.26.51-.4.76-.03.06-.09.11-.12.17-.35.68-.67,1.37-1.04,2.04-.44.79-.91,1.56-1.37,2.34-.09.16-.24.32-.26.49-.02.24-.02.55.12.71.09.11.45.07.65,0,.91-.34,1.82-.7,2.71-1.09.84-.37,1.64-.83,2.48-1.2.92-.4,1.87-.73,2.8-1.12.85-.36,1.67-.77,2.51-1.16.28-.13.57-.23.85-.36.36-.16.7-.34,1.05-.51.08-.04.14-.1.22-.14.85-.34,1.71-.65,2.55-1.02.95-.42,1.89-.88,2.83-1.32.09-.04.17-.12.27-.16.59-.26,1.18-.51,1.78-.77.5-.22.99-.44,1.49-.65.96-.4,1.92-.79,2.89-1.18.38-.15.77-.28,1.17-.39.55-.14,1.08-.1,1.66.04,1.37.33,2.26,1.33,3.28,2.13,1.19.94,2.29,2.01,3.51,2.92,1.91,1.43,4.03,2.28,6.49,1.83.13-.02.29-.04.41,0,.21.08.41.2.61.31-.12.17-.23.34-.36.5-.84.97-2.03,1.05-3.22,1.27Z" fill="#fff"/>
        <path d="M84.25,74.75c-.32-.16-.71-.21-1-.4-1-.65-2-1.32-2.95-2.04-.74-.57-1.45-1.19-2.1-1.86-.69-.71-1.33-1.48-1.9-2.28-.82-1.15-1.57-2.35-2.35-3.53-.07-.1-.15-.19-.21-.29-.37-.63-.75-1.26-1.11-1.89-.26-.46-.47-.94-.74-1.39-.28-.45-.21-.82.28-1.06.75-.36,1.51-.66,2.36-.67.3,0,.62-.09.9-.21.92-.4,1.82-.83,2.74-1.24.9-.4,1.57-1.07,2.22-1.77.75-.81,1.1-1.72,1.02-2.85-.06-.79-.31-1.44-.74-2.09-.56-.85-1.19-1.54-2.29-1.58-.79-.03-1.58,0-2.37-.04-1.26-.06-2.27.62-3.33,1.11-.66.31-1.18.93-1.78,1.38-.17.13-.47.28-.62.21-.15-.06-.26-.4-.24-.6.08-.87.19-1.74.33-2.6.08-.47.29-.92.37-1.39.27-1.49.51-2.98.77-4.47.23-1.26.25-2.55.69-3.8.52-1.47.46-3.06.93-4.58.54-1.74.66-3.61,1.01-5.41.15-.77.42-1.52.6-2.29.31-1.31-.15-2.5-1.15-3.11-.9-.55-1.79-1.11-2.69-1.66-.3-.18-.64-.25-.8.11-.32.72-.6,1.46-.84,2.2-.35,1.09-.64,2.2-.97,3.3-.05.18-.16.34-.23.52-.12.3-.26.6-.34.91-.24.94-.48,1.89-.69,2.84-.31,1.41-.66,2.81-.88,4.23-.21,1.36-.47,2.7-.76,4.04-.44,2.06-.64,4.18-.96,6.27-.25,1.63-.53,3.26-.76,4.89-.1.67-.18,1.32-.61,1.88-.11.14-.13.35-.21.52-.37.83-.71,1.67-1.12,2.47-.39.75-.94,1.42-1.28,2.19-.64,1.46-1.65,2.66-2.7,3.81-1.06,1.17-2.26,2.18-3.69,2.91-1.1.56-2.22.06-2.54-.99-.27-.92-.43-1.95-.33-2.89.29-2.66.23-5.36.86-8,.45-1.9.33-3.88.86-5.8.4-1.44.43-2.98.76-4.46.53-2.36.86-4.76,1.3-7.14.21-1.16.47-2.32.71-3.48.05-.24.12-.47.17-.7.16-.74.32-1.47.47-2.21.1-.51.18-1.01.28-1.52.19-.97.4-1.94.59-2.91.23-1.16.43-2.33.71-3.48.29-1.25.65-2.48.99-3.71.03-.13.12-.25.21-.35.51-.59.63-1.3.56-2.03-.03-.28-.19-.6-.4-.79-.4-.38-.88-.68-1.32-1.03-.1-.08-.15-.22-.25-.31-.15-.13-.31-.32-.47-.33-.58-.04-1.17-.03-1.75-.03-.47,0-1.02-.13-1.14.58,0,.04-.08.07-.11.11-.47.63-1.03,1.2-1.22,2-.03.15-.15.27-.21.41-.16.39-.32.78-.47,1.18-.16.43-.3.87-.45,1.31-.07.19-.19.37-.23.57-.37,1.84-.59,3.71-1.13,5.5-.47,1.56-.51,3.21-1.18,4.73-.36.82-.42,1.76-.62,2.65-.15.65-.33,1.3-.46,1.95-.13.61-.12,1.25-.34,1.82-.41,1.1-.48,2.25-.57,3.39-.03.36-.07.72-.13,1.08-.17,1.07-.41,2.13-.53,3.2-.24,2.24-.41,4.48-.65,6.72-.06.57-.2,1.17-.45,1.68-.35.71-.8,1.39-1.29,2.03-.88,1.15-1.77,2.3-2.74,3.37-.89.98-1.9,1.87-2.86,2.79-.32.31-.64.62-.94.94-.36.37-.66.8-1.06,1.1-.25.18-.66.25-.96.19-.14-.03-.24-.48-.28-.75-.04-.27,0-.55.03-.82.23-1.82.45-3.65.71-5.47.08-.59.24-1.17.37-1.76.1-.44.22-.87.31-1.31.37-1.96.74-3.91,1.09-5.87.13-.74.09-1.48-.19-2.19-.21-.54-1.01-.82-1.56-.61-.91.35-1.15,1.23-1.6,1.93-.45.7-.84,1.44-1.26,2.16-.23.4-.46.79-.71,1.18-.41.64-.84,1.26-1.25,1.9-.5.77-.98,1.55-1.46,2.34-.11.17-.18.37-.26.55-.08.17-.14.35-.24.51-.42.66-.82,1.34-1.29,1.96-.52.69-1.08,1.36-1.68,1.99-.33.35-.77.18-.83-.3-.16-1.19-.49-2.41-.36-3.58.24-2.22.13-4.49,1.06-6.63.43-1.01.87-1.92,1.72-2.63.33-.28.63-.33.91-.04.53.55,1.05,1.11,1.52,1.71.27.34.53.48.85.26.56-.37.88-1.21.55-1.78-.32-.54-.54-1.21-1.25-1.43-.12-.04-.22-.17-.34-.23-.36-.18-.73-.45-1.11-.48-1.01-.07-2-.15-2.93.6-1.11.9-2.32,1.64-3.16,2.87-.65.96-1.25,1.91-1.58,3.02-.05.18-.18.33-.26.5-.17.39-.3.8-.48,1.18-.37.75-.69,1.53-1.16,2.21-.61.88-1.35,1.67-2.02,2.52-.7.9-1.35,1.84-2.07,2.73-.67.82-1.38,1.62-2.12,2.37-.25.25-.67.48-1,.45-.45-.04-.38-.53-.39-.89,0-.07,0-.14,0-.21,0-2.29.07-4.57.43-6.84.25-1.58.23-3.19.43-4.78.42-3.31,1.02-6.58,1.67-9.85.12-.61.87-1.21,1.48-1.21,1.57,0,3.13,0,4.7,0h0c1.36,0,2.72,0,4.08,0,.31,0,.62,0,.93-.02.49-.04.88-.4.87-.79,0-.4-.44-.76-.94-.76-.86,0-1.72,0-2.58,0-2.37.02-4.75.04-7.12.07-.5,0-.87-.32-.81-.85.09-.78.29-1.54.43-2.32.12-.64.27-1.28.31-1.92.03-.51-.27-.86-.8-1-.24-.06-.45-.23-.67-.35-.26-.15-.51-.33-.79-.46-.29-.14-.62-.22-.91-.35-1.07-.5-1.73-.08-2.21.91-.42.87-.72,1.83-.89,2.78-.16.89-.45,1.71-.79,2.54-.2.49-.51.77-1.01.83-1.04.12-2.08.25-3.13.31-1.43.08-2.86.1-4.28.13-.31,0-.45.11-.42.42.03.25-.09.56.35.61,1.13.12,2.25.31,3.38.41,1.34.11,2.68.13,4.02.24.78.06.89.28.8,1.05-.19,1.52-.37,3.04-.52,4.56-.16,1.56-.17,3.13-.43,4.67-.45,2.7-.47,5.4-.42,8.13.04,1.81.57,3.53.82,5.3.04.25.22.49.38.71.74,1.05,1.68,1.7,3.04,1.46.38-.07.88-.05,1.12-.28.89-.84,1.73-1.75,2.53-2.68.77-.89,1.48-1.83,2.22-2.75.37-.47.74-.94,1.11-1.41.59-.74,1.18-1.47,1.78-2.2.2-.24.41-.24.54.09.26.71.58,1.4.76,2.12.36,1.45.98,2.76,1.88,3.95.64.86,1.83,1,2.61.27.56-.52,1.19-.96,1.62-1.64.69-1.09,1.42-2.16,2.18-3.21.18-.24.55-.35.83-.52.13.22.34.43.37.66.13.92.25,1.85.27,2.77.04,1.88.77,3.51,1.84,4.97.56.77,1.36,1.44,2.4,1.22.63-.13,1.3-.51,1.76-.97.82-.81,1.5-1.77,2.23-2.67.75-.92,1.5-1.85,2.24-2.77.83-1.03,1.64-2.06,2.47-3.09.29-.36.56-.73.86-1.08.13-.15.32-.26.48-.38.11.19.3.38.33.58.09.6.08,1.2.16,1.8.23,1.79.49,3.58.74,5.36.04.25.1.51.2.75.46,1.13.53,2.41,1.3,3.43.52.69.9,1.5,1.84,1.75.21.05.42.17.61.27.78.44,1.62.4,2.4.1.93-.36,1.92-.66,2.67-1.36.73-.69,1.4-1.44,2.08-2.19.17-.18.24-.46.38-.67.41-.6.87-1.17,1.24-1.79.39-.66.7-1.36,1.04-2.04.05-.09.11-.17.16-.26.41-.66.84-1.31,1.23-1.98.16-.27.19-.72.61-.64.44.08.36.52.38.86.01.19,0,.38,0,.57,0,2.46,0,4.92-.01,7.39,0,.87.13,1.65.54,2.47.4.78,1.07,1.05,1.72,1.34.63.28,1.25.09,1.73-.52.48-.61.68-1.26.67-2.01-.03-2.18.26-4.33.78-6.44.05-.19.27-.34.41-.51.16.16.36.29.46.48.36.64.65,1.31,1.03,1.94.4.67.85,1.31,1.29,1.96.91,1.35,1.81,2.7,2.74,4.03.32.46.7.89,1.1,1.29.67.66,1.35,1.31,2.06,1.91.58.49,1.2.95,1.84,1.36.6.38,1.32.6,1.86,1.05.7.57,1.49.66,2.31.73.26.02.56-.03.8-.13.17-.07.37-.27.38-.42,0-.13-.23-.31-.39-.39ZM71.21,56.59c-.51.15-1.02.31-1.54.36-.46.05-.71-.29-.5-.71.33-.64.69-1.33,1.21-1.8.73-.66,1.61-1.15,2.44-1.68.59-.38,1.19-.74,1.82-1.04.44-.21.92-.32,1.39-.47.9,0,1.46.57,1.93,1.15.19.24.2.84.02,1.1-.3.43-.76.79-1.23,1.03-.99.5-2.02.92-3.05,1.32-.46.18-.96.23-1.44.37-.36.1-.69.28-1.05.38Z" fill="#fff"/>
        <path d="M157.15,52.25c-.19-.59-.63-1.26-1.15-1.56-.77-.43-1.7-.61-2.65-.48-1.43.19-2.62.94-3.87,1.55-.27.13-.6.14-.9.21-.04-.3-.12-.6-.11-.9,0-.17.12-.36.22-.51.42-.6.51-1.28.46-1.97-.02-.22-.2-.46-.37-.64-.81-.85-1.87-.83-2.93-.76-.22.02-.55.18-.63.36-.32.73-.57,1.5-.83,2.26-.14.4-.21.83-.36,1.23-.16.41-.38.8-.58,1.2-.08.17-.13.36-.25.5-.44.5-.89.99-1.35,1.47-.29.31-.76.23-.95-.15-.1-.2-.13-.43-.2-.64-.38-1.06-.25-2.29-1.15-3.19-.26-.26-.47-.51-.83-.61-.66-.18-.8-.37-.8-1.06,0-.48.05-.97.01-1.44-.07-.92-1.29-1.64-2.09-1.19-.79.44-1.65.78-2.23,1.53-.33.43-.74.82-1.05,1.26-.63.88-1.24,1.76-1.81,2.67-.42.66-.74,1.39-1.16,2.05-.67,1.05-1.42,2.04-2.07,3.09-.48.78-.88,1.61-1.61,2.2-.09.08-.11.25-.17.37-.08.15-.17.29-.27.43-.49.7-1.11,1.32-1.36,2.18-.04.16-.34.33-.52.34-.15,0-.38-.2-.44-.36-.08-.21-.05-.47-.04-.71.11-1.84.22-3.68.34-5.51-.06,0-.11,0-.17,0,0-1.29.04-2.58-.02-3.87-.02-.51-.25-1.02-.41-1.53-.26-.83-.47-1.68-1.05-2.37-.54-.64-1.06-1.28-1.63-1.89-.12-.13-.38-.11-.58-.16-1.07-.23-1.83.47-2.55,1-.95.69-1.75,1.59-2.54,2.47-.67.74-1.25,1.58-1.86,2.38-.43.56-.85,1.11-1.26,1.68-.3.41-.59.84-.85,1.28-.41.7-.78,1.42-1.2,2.12-.47.77-.96,1.53-1.46,2.29-.06.09-.21.21-.26.19-.1-.06-.23-.18-.23-.29,0-.29.04-.58.09-.87.18-1.15.37-2.3.55-3.45.11-.64.21-1.29.33-1.93.11-.59.27-1.17.37-1.77.36-2.15.69-4.31,1.04-6.46.06-.34.16-.67.22-1.01.17-.92.33-1.85.5-2.78.08-.46.16-.91.27-1.36.12-.5.31-.98.4-1.49.36-2.05.6-4.12,1.07-6.14.36-1.56.7-3.11.86-4.71.01-.15.07-.3.13-.44.78-2.06.34-4.02-.5-5.94-.02-.05-.06-.09-.09-.13-.44-.56-.89-1.12-1.33-1.69-.52-.67-1.41-.71-1.93-.05-.22.29-.39.65-.48,1.01-.36,1.36-.69,2.72-1.03,4.09,0,.03-.02.06-.03.1-.39,1.24-.81,2.47-1.17,3.71-.33,1.15-.65,2.31-.89,3.48-.2,1.01-.27,2.05-.42,3.07-.41,2.7-.84,5.4-1.24,8.1-.08.53-.07,1.06-.13,1.59-.23,2.15-.83,4.24-.88,6.43-.05,2.37-.45,4.74-.44,7.1,0,2.61.28,5.22.45,7.82.07.97.66,1.53,1.59,1.55.82.02,1.55-.64,1.77-1.44.27-1,.66-1.98,1.01-2.96.03-.08.11-.13.15-.21.12-.26.25-.51.35-.78.07-.17.04-.39.13-.55.43-.79.87-1.58,1.32-2.36.33-.57.66-1.15,1-1.71.44-.74.87-1.48,1.35-2.19.37-.55.8-1.07,1.22-1.59.58-.71,1.11-1.48,1.77-2.11.93-.88,1.93-1.69,2.96-2.46.28-.21.77-.16,1.16-.23.04.32.15.65.11.96-.1.85-.27,1.7-.38,2.55-.12.9-.2,1.81-.34,2.71-.13.86-.33,1.72-.49,2.58-.15.81-.28,1.62-.42,2.43-.17.98-.34,1.96-.51,2.94-.08.44-.08.9-.23,1.32-.59,1.63-.52,3.32-.44,5,.01.25.09.53.23.72.43.6.61,1.33,1.23,1.85.45.37.89.61,1.42.58.51-.03.96-.22,1.14-.85.22-.8.57-1.57.87-2.35.04-.11.13-.2.18-.31.19-.38.37-.77.55-1.15.09-.2.17-.41.28-.61.42-.74.85-1.48,1.27-2.22.34-.6.66-1.21,1-1.81.04-.07.12-.12.17-.19.4-.51.81-1.02,1.2-1.54.51-.69,1.01-1.39,1.52-2.08.3-.41.7-.77.89-1.22.19-.44.49-.64.87-.8.28-.11.47-.07.5.28.13,1.27.22,2.55,1.14,3.56.43.47.8,1.06,1.33,1.38.98.58,2.04.95,3.25.96,1.21,0,2.25-.35,3.15-1.03.5-.38,1.13-.8,1.24-1.57.02-.14.16-.26.22-.41.17-.4.36-.8.49-1.21.18-.57.29-1.17.49-1.73.11-.29.32-.59.56-.78.17-.13.51-.19.7-.11.15.06.3.38.28.58-.07,1.05-.27,2.09-.29,3.13-.1,3.89-.34,7.77-.75,11.64-.11,1.01-.23,2,.49,2.9.45.56,1.87,1.06,2.47.65.23-.16.44-.45.53-.72.15-.47.2-.97.27-1.47.15-1.04.28-2.08.44-3.11.12-.8.27-1.59.39-2.38.06-.41.07-.83.15-1.23.41-2.02.8-4.04.91-6.11.01-.27.05-.61.22-.78.58-.57.48-1.23.42-1.93-.03-.4-.06-.89.14-1.2.51-.8.87-1.71,1.7-2.28,1.04-.73,2.05-1.49,3.43-1.4.9.06,1.25.4,1.15,1.3-.03.27-.13.53-.24.78-.47,1.15-.97,2.29-1.41,3.45-.31.83-.67,1.61-1.41,2.15-.41.3-.85.32-1.13-.09-.24-.35-.34-.8-.49-1.21-.11-.3-.15-.64-.31-.92-.15-.27-.44-.35-.69-.08-.54.58-.63,1.29-.5,2.02.1.55.35,1.08.51,1.62.11.37.3.6.7.65.49.07.99.25,1.47.23.9-.04,1.83-.08,2.69-.33.55-.16,1.05-.63,1.49-1.05.51-.49,1-1.04,1.38-1.64.42-.66.84-1.37,1.01-2.12.35-1.53.53-3.12.05-4.65ZM138.95,57.64c-.49,1.51-1.46,2.54-2.99,3-.75.23-1.97-.4-2.17-1.16-.19-.76-.28-1.54-.41-2.28.14-.86.25-1.66.41-2.44.04-.2.27-.36.41-.54.13.17.29.32.37.51.51,1.22,1.51,1.81,2.72,2.12.43.11.88.11,1.32.19.33.06.45.27.34.61ZM138.53,55.92c-.15.1-.4.13-.58.09-.93-.2-2.66-1.61-2.42-2.88.19-1.01.68-1.88,1.48-2.51.58-.46,1.44-.1,1.67.58.13.39.36.74.47,1.14.17.62.28,1.26.42,1.9.1.86-.46,1.29-1.04,1.68Z" fill="#fff"/>
        <path d="M174.98,53.1c-.29-1.56-1.47-2.81-3.05-3.09-1.2-.22-2.27.34-3.33.71-.65.23-1.18.8-1.77,1.19-.13.08-.35.14-.46.08-.12-.05-.25-.28-.23-.4.05-.33.13-.68.3-.96.37-.62.45-1.28.41-1.98-.03-.5-.47-.59-.74-.86-.65-.65-2.24-.79-2.88-.15-.54.53-1.08,1.1-1.15,1.96-.03.37-.19.73-.31,1.08-.16.48-.35.96-.49,1.44-.09.31-.1.65-.17.96-.42,1.82-.92,3.62-1.26,5.46-.24,1.28-.17,2.61-.39,3.9-.4,2.3-.55,4.61-.59,6.93,0,1.03,0,2.06,0,3.1,0,1.42.62,2.13,2.02,2.36,1.04.17,1.46-.08,1.65-1.11.3-1.69.53-3.39.84-5.08.35-1.98.31-4.02.99-5.94.03-.09.03-.2.03-.31.1-1.1.19-2.19.3-3.29.01-.12.14-.23.22-.35.07.09.19.17.2.27.12.78.41,1.46.9,2.1.28.36.54.61.97.77.94.35,1.82.21,2.77.03,1.09-.2,1.91-.81,2.73-1.42.53-.39.99-.9,1.37-1.44.41-.6.81-1.26.99-1.95.35-1.3.39-2.65.14-3.99ZM171.5,54.23c-.2.43-.35.88-.5,1.34-.35,1.09-.79,2.14-1.5,3.05-.35.45-.74.89-1.19,1.23-.24.18-.67.27-.95.19-.19-.05-.32-.47-.37-.75-.08-.47-.04-.96-.13-1.43-.11-.56-.34-.59-.77-.24-.19.15-.5.3-.7.24-.14-.04-.19-.41-.28-.64.06-1.48.63-2.65,1.8-3.52.67-.5,1.33-1.05,2.08-1.37.55-.24,1.25-.26,1.85-.16.78.13,1.06,1.22.65,2.06Z" fill="#fff"/>
        <path d="M199.81,51.02c-.25-.33-.49-.06-.7.11-.25.2-.52.4-.73.65-.88,1.07-1.71,2.18-2.62,3.23-1.06,1.23-2.16,2.42-3.28,3.6-.5.53-1.03,1.06-1.65,1.43-.84.51-1.7,1.03-2.71,1.19-.62.1-1.24.33-1.86.31-.52-.02-1.04-.31-1.56-.5-.94-.34-1.6-1.2-1.55-2.19.11-2.28.27-4.57.43-6.85.05-.63.49-1.05,1.13-1.15,2.01-.31,4.06-.37,6.04-.96.8-.24,1.67-.24,2.3-.9.2-.21.46-.37.62-.6.33-.45.6-.94.91-1.4.81-1.24.76-3.17-.21-4.28-.39-.45-.83-.91-1.49-1.03-1.78-.32-3.57-.34-5.33.02-.59.12-1.15.42-1.68.72-.74.42-1.47.86-2.13,1.39-.63.51-1.19,1.11-1.74,1.72-.45.5-.95,1.01-1.24,1.61-.38.79-1.06,1.45-1.1,2.4,0,.06-.03.14-.08.19-.56.62-.56,1.42-.68,2.18-.06.36-.14.71-.22,1.06-.19.83-.38,1.65-.57,2.48.14,2.54,1.17,4.58,3.07,6.16.5.42,1.13.69,1.73.97.4.18.86.24,1.29.37.9.26,1.81.32,2.69.03.93-.3,1.96-.32,2.77-1.03.51-.45,1.2-.7,1.78-1.09.42-.29.8-.64,1.18-.99.43-.4.84-.83,1.25-1.26.66-.68,1.36-1.34,1.98-2.06,1.2-1.39,2.35-2.81,3.53-4.21.12-.14.31-.23.43-.37.28-.31.21-.66,0-.95ZM184.72,48.83c.35-.73.77-1.44,1.23-2.1.36-.51.82-.95,1.26-1.39.6-.59,1.24-1.12,2.07-1.37.5-.15.98-.43,1.49-.53.81-.16,2.47.87,2.61,1.93.04.28.03.62-.1.85-.43.75-.78,1.57-1.65,1.97-.86.4-1.66.92-2.52,1.31-.33.15-.74.12-1.12.14-.38.02-.76,0-1.13,0,0,0,0,0,0,0-.52,0-1.03.01-1.55,0-.52-.02-.81-.36-.59-.82Z" fill="#fff"/>
      </g>
    </g>
  </g>
</svg>