<?xml version="1.0" encoding="UTF-8"?>
<svg xmlns="http://www.w3.org/2000/svg" version="1.1" viewBox="0 0 200 100">
  <!-- Generator: Adobe Illustrator 28.7.3, SVG Export Plug-In . SVG Version: 1.2.0 Build 164)  -->
  <g>
    <g id="Layer_1">
      <g>
        <path d="M92.86,61.87V3.96h5.19v90.79h-4.99c-.09-1.34-.19-2.73-.3-4.45-3.66,1.94-7.09,3.76-10.48,5.56-10.53-2.36-17.28-9.5-16.94-20.02.29-8.97,8.11-16.59,17.09-16.68,3.64-.04,6.97.96,10.43,2.71ZM92.85,67.18c-4.81-3.3-9.78-4.34-15.1-1.51-5.02,2.66-7.34,7.13-6.73,12.97.71,6.67,5.22,9.94,10.99,12.14,3.64-1.81,7.25-3.6,10.83-5.38v-18.21Z" fill="#fff"/>
        <path d="M46.85,71.24v-6.38h-18.84c.33-1.67.61-3.11.91-4.65h23.07v34.58c-.75.04-1.45.08-2.16.1-.64.02-1.28,0-2,0-.27-.94-.49-1.74-.64-2.27-2.4.97-4.64,2.14-7.03,2.8-5.81,1.59-11.67-1.28-13.6-6.42-2.18-5.83.22-11.88,5.77-14.73,3.03-1.56,6.29-2.06,9.61-2.43,1.57-.18,3.14-.38,4.91-.59ZM46.89,75.37c-3.95.43-7.72.56-11.19,2.16-.9.42-1.76,1.03-2.47,1.72-3.94,3.87-2.22,10.4,3.06,11.95,2.92.85,7.62-.26,10.6-4.23v-11.61Z" fill="#fff"/>
        <path d="M163.89,94.76h-5.05c-.08-1.17-.16-2.35-.26-3.89-2.12,2.19-4.25,3.78-6.98,4.57-8.13,2.36-15.36-2.61-15.63-11.08-.21-6.6-.06-13.21-.08-19.81,0-1.38,0-2.75,0-4.3h5.26c0,.77,0,1.54,0,2.31,0,6.75-.04,13.5.03,20.25.04,4.35,2.54,7.52,6.19,8.04,2.3.33,4.62.12,6.42-1.37,1.7-1.4,3.12-3.18,4.49-4.92.42-.54.4-1.51.4-2.28.03-6.53.02-13.06.02-19.59v-2.47h5.18v34.54Z" fill="#fff"/>
        <path d="M198.62,61.58v4.83c-1.53-.64-2.91-1.26-4.32-1.79-2.35-.88-4.79-1.2-7.25-.65-.97.21-1.96.61-2.77,1.17-2.24,1.53-2.55,4.34-.53,6.15,1.37,1.23,3.11,2.08,4.73,3.01,2.5,1.45,5.16,2.66,7.53,4.29,2.27,1.55,3.79,3.77,3.97,6.69.29,4.66-2.18,8.28-6.68,9.76-5.16,1.69-10.4,1.17-15.65-1.62v-5.05c1.69.69,3.24,1.39,4.83,1.97,2.63.95,5.32,1.45,8.08.61.82-.25,1.65-.59,2.35-1.07,2.35-1.64,2.62-4.63.44-6.5-1.35-1.16-3.02-1.96-4.56-2.9-2.77-1.7-5.73-3.15-8.28-5.12-3.27-2.53-4.07-6.03-2.7-9.75,1.11-3.02,3.42-4.81,6.41-5.71,4.97-1.49,9.72-.73,14.4,1.68Z" fill="#fff"/>
        <path d="M5.15,69.22v25.5H0v-34.53h5.09v4.25c.12.09.24.19.36.28,3.42-3.8,7.25-6.52,12.82-5.24v4.99c-5.38-1.4-9.35,1.11-13.12,4.74Z" fill="#fff"/>
        <path d="M114.49,60.23h5.06v34.49h-5.06v-34.49Z" fill="#fff"/>
      </g>
    </g>
  </g>
</svg>