<?xml version="1.0" encoding="UTF-8"?>
<svg xmlns="http://www.w3.org/2000/svg" version="1.1" viewBox="0 0 200 100">
  <!-- Generator: Adobe Illustrator 28.7.3, SVG Export Plug-In . SVG Version: 1.2.0 Build 164)  -->
  <g>
    <g id="Layer_1">
      <g>
        <g>
          <polygon points="126.85 22.31 145.85 50 126.85 77.69 126.85 22.31" fill="#00b852"/>
          <path d="M43.54,66v11.69H0V22.31h14.38v43.69h29.15ZM76.77,66v-11.38h25.77v-10.54h-25.77v-10.08h29.23v-11.69h-43.54v55.38h43.54v-11.69h-29.23ZM141.15,22.31h-14.38l14.38,20.85v-20.85ZM126.85,77.69h14.38v-20.85l-14.38,20.85ZM180.77,77.69l-19-27.69,19-27.69h-15.92l-19,27.69,19,27.69h15.92Z" fill="#fff"/>
        </g>
        <path d="M192.08,23h-2.23v5.77h-.77v-5.77h-2.23v-.69h5.23v.69h0ZM200,28.77h-.77v-5.62l-2.23,4.92h-.77l-2.23-4.85v5.62h-.77v-6.54h1.15l2.23,4.85,2.23-4.85h1.15v6.46Z" fill="#fff"/>
      </g>
    </g>
  </g>
</svg>